<svg id="레이어_1" data-name="레이어 1" xmlns="http://www.w3.org/2000/svg" viewBox="0 0 19.99 19.99"><defs><style>.cls-1{fill:#fff;}</style></defs><path class="cls-1" d="M2.92,17.07a10,10,0,1,1,14.15,0A10,10,0,0,1,2.92,17.07ZM16.54,3.45a9.26,9.26,0,1,0,0,13.09A9.26,9.26,0,0,0,16.54,3.45Z" transform="translate(0 0)"/><path class="cls-1" d="M4.42,10.26A.36.36,0,0,1,4.31,10a.38.38,0,0,1,.37-.38H15.31a.38.38,0,0,1,0,.75H4.68A.36.36,0,0,1,4.42,10.26Z" transform="translate(0 0)"/><path class="cls-1" d="M10.31,15a.37.37,0,0,1,0-.52L14.78,10,10.31,5.53A.37.37,0,1,1,10.84,5l4.73,4.73a.37.37,0,0,1,0,.53L10.84,15A.39.39,0,0,1,10.31,15Z" transform="translate(0 0)"/></svg>