<svg id="레이어_1" data-name="레이어 1" xmlns="http://www.w3.org/2000/svg" viewBox="0 0 13 13"><defs><style>.cls-1{fill:#d4d4d4;}.cls-2{fill:#fff;}</style></defs><circle class="cls-1" cx="6.5" cy="6.5" r="6.5"/><path class="cls-2" d="M8.87,8.82a.13.13,0,0,1-.1,0L4,4.05a.13.13,0,1,1,.19-.19L9,8.59a.14.14,0,0,1,0,.19A.12.12,0,0,1,8.87,8.82Z" transform="translate(0 0)"/><path class="cls-2" d="M4.13,8.82a.12.12,0,0,1-.09,0,.14.14,0,0,1,0-.19L8.77,3.86A.13.13,0,0,1,9,4.05L4.23,8.78A.13.13,0,0,1,4.13,8.82Z" transform="translate(0 0)"/></svg>