<?xml version="1.0" encoding="utf-8"?>
<!-- Generator: Adobe Illustrator 24.2.1, SVG Export Plug-In . SVG Version: 6.00 Build 0)  -->
<svg version="1.1" id="레이어_1" xmlns="http://www.w3.org/2000/svg" xmlns:xlink="http://www.w3.org/1999/xlink" x="0px"
	 y="0px" viewBox="0 0 14 14" style="enable-background:new 0 0 14 14;" xml:space="preserve">
<style type="text/css">
	.st0{fill:#1E1F1F;}
</style>
<g>
	<path class="st0" d="M5.7,11.3c-3.1,0-5.5-2.5-5.5-5.5s2.5-5.5,5.5-5.5s5.5,2.5,5.5,5.5c0,0,0,0,0,0C11.2,8.8,8.8,11.2,5.7,11.3z
		 M5.7,1.3c-2.5,0-4.5,2-4.5,4.4c0,2.5,2,4.5,4.4,4.5c2.5,0,4.5-2,4.5-4.4c0,0,0,0,0,0C10.2,3.3,8.2,1.3,5.7,1.3z"/>
	<path class="st0" d="M5.7,11.4c-1.5,0-3-0.6-4-1.7C0.6,8.7,0,7.3,0,5.7c0-1.5,0.6-3,1.7-4.1S4.2,0,5.7,0c0,0,0,0,0,0
		c1.5,0,3,0.6,4,1.7c1.1,1.1,1.7,2.5,1.7,4C11.4,8.9,8.9,11.4,5.7,11.4L5.7,11.4C5.7,11.4,5.7,11.4,5.7,11.4z M5.7,0.4
		C5.7,0.4,5.7,0.4,5.7,0.4C4.3,0.4,3,0.9,1.9,2c-1,1-1.6,2.4-1.6,3.8c0,1.4,0.6,2.8,1.6,3.8c1,1,2.3,1.6,3.8,1.6c0,0,0,0,0,0l0,0
		c2.9,0,5.3-2.4,5.3-5.3c0-1.4-0.6-2.8-1.6-3.8C8.5,0.9,7.1,0.4,5.7,0.4z M5.7,10.4C5.7,10.4,5.7,10.4,5.7,10.4
		c-2.6,0-4.7-2.1-4.6-4.7c0-1.2,0.5-2.4,1.4-3.3c0.9-0.9,2-1.4,3.3-1.4c0,0,0,0,0,0h0c2.6,0,4.6,2.1,4.6,4.6C10.4,7,9.9,8.2,9,9
		C8.1,9.9,7,10.4,5.7,10.4z M5.7,1.5c-1.1,0-2.2,0.4-3,1.2c-0.8,0.8-1.3,1.9-1.3,3c0,2.3,1.9,4.3,4.3,4.3c0,0,0,0,0,0
		c1.1,0,2.2-0.4,3-1.2C9.5,8,10,6.9,10,5.7C10,3.4,8.1,1.5,5.7,1.5C5.7,1.5,5.7,1.5,5.7,1.5z"/>
</g>
<g>
	<path class="st0" d="M13.2,13.8c-0.1,0-0.3-0.1-0.4-0.2l-4-4c-0.2-0.2-0.2-0.5,0-0.8c0.2-0.2,0.5-0.2,0.8,0l4,4
		c0.2,0.2,0.2,0.6,0,0.8C13.5,13.7,13.4,13.8,13.2,13.8z"/>
	<path class="st0" d="M13.3,14C13.2,14,13.2,14,13.3,14c-0.2,0-0.4-0.1-0.5-0.2l-4-4C8.6,9.6,8.5,9.5,8.5,9.3c0-0.2,0.1-0.4,0.2-0.5
		c0.3-0.3,0.8-0.3,1,0l4,4c0.3,0.3,0.3,0.7,0,1C13.6,13.9,13.4,14,13.3,14z M13.2,13.6L13.2,13.6c0.1,0,0.2,0,0.2-0.1
		c0.1-0.1,0.1-0.4,0-0.5l-4-4C9.4,8.9,9.1,8.9,9,9C9,9.1,8.9,9.2,8.9,9.3S9,9.4,9,9.5l4,4C13.1,13.6,13.1,13.6,13.2,13.6
		C13.2,13.6,13.2,13.6,13.2,13.6L13.2,13.6z"/>
</g>
</svg>
