<svg id="레이어_1" data-name="레이어 1" xmlns="http://www.w3.org/2000/svg" viewBox="0 0 245 24.99"><defs><style>.cls-1{fill:#d6793c;}.cls-2,.cls-4{fill:#b42d34;}.cls-3{fill:#861d20;}.cls-4{fill-rule:evenodd;}.cls-5{fill:#4d4d4d;}</style></defs><g id="그룹_2212" data-name="그룹 2212"><g id="그룹_2210" data-name="그룹 2210"><g id="그룹_2209" data-name="그룹 2209"><g id="그룹_2208" data-name="그룹 2208"><path id="패스_897" data-name="패스 897" class="cls-1" d="M24.64,0a12.16,12.16,0,0,0-4.87,1,11.79,11.79,0,0,0-3.84,2.63,12.12,12.12,0,0,0-3.44,8.57v.07a12.89,12.89,0,0,0,.89,4.83,11.24,11.24,0,0,0,6.34,6.36,13.12,13.12,0,0,0,5,.91,14,14,0,0,0,5.64-1.09,16.75,16.75,0,0,0,4.24-2.64l.06,0V10.27H24.34V15h5.05v3.11l-.26.17a7.81,7.81,0,0,1-4.29,1.14,6.43,6.43,0,0,1-4.84-2,7,7,0,0,1-1.4-2.29,8.18,8.18,0,0,1-.5-2.89v-.07a7.88,7.88,0,0,1,.5-2.76A7.12,7.12,0,0,1,20,7.13a6.93,6.93,0,0,1,2-1.52,5.55,5.55,0,0,1,2.47-.56,9.45,9.45,0,0,1,1.76.16,7.88,7.88,0,0,1,1.48.45A8.45,8.45,0,0,1,29,6.38a12.17,12.17,0,0,1,1.29,1l.14.13,3.38-4.14-.11-.1a15.52,15.52,0,0,0-1.85-1.37,11.19,11.19,0,0,0-2.05-1A13.77,13.77,0,0,0,27.47.24,16.79,16.79,0,0,0,24.64,0Z" transform="translate(0 0)"/></g></g><path id="패스_898" data-name="패스 898" class="cls-2" d="M13.8,4.61S16.25.67,20.37.06H2.3L1.61,12l3.06,2a13.66,13.66,0,0,1,1.87-.62,8.71,8.71,0,0,1,2.15-.25,5.12,5.12,0,0,1,3.07.85A2.73,2.73,0,0,1,13,16.3v.07a2.91,2.91,0,0,1-1.08,2.44,4.67,4.67,0,0,1-2.94.85,6.61,6.61,0,0,1-3-.68,12.57,12.57,0,0,1-2.75-1.89L0,20.83a13.68,13.68,0,0,0,3.92,2.58A12.63,12.63,0,0,0,9,24.35a13.44,13.44,0,0,0,4-.6,8.55,8.55,0,0,0,3-1.61,7.28,7.28,0,0,0,1.86-2.56,8.34,8.34,0,0,0,.65-3.38v-.07a8.2,8.2,0,0,0-.65-3.42A6.4,6.4,0,0,0,16,10.37,7.81,7.81,0,0,0,13.34,9a14.22,14.22,0,0,0-3.61-.44A11,11,0,0,0,8,8.7c-.48.08-1,.18-1.44.29l.27-4.38Z" transform="translate(0 0)"/><path id="패스_899" data-name="패스 899" class="cls-3" d="M18.5,16.05V16a8.52,8.52,0,0,0-.66-3.48A6.43,6.43,0,0,0,16,10.12a7.7,7.7,0,0,0-2.69-1.37l-.42-.11A13.31,13.31,0,0,0,12.49,12V12A13.35,13.35,0,0,0,13.38,17a11.89,11.89,0,0,0,2.5,3.9c.23.23.46.44.7.65a7.34,7.34,0,0,0,1.26-2,8.68,8.68,0,0,0,.66-3.45Z" transform="translate(0 0)"/></g><g id="그룹_2211" data-name="그룹 2211"><path id="패스_900" data-name="패스 900" class="cls-4" d="M57.43,9.07l4.26-4.25a2.82,2.82,0,0,0,0-4h0a2.81,2.81,0,0,0-4,0h0L53.45,5.09a2.82,2.82,0,1,0,3.95,4l0,0Z" transform="translate(0 0)"/><path id="패스_901" data-name="패스 901" class="cls-4" d="M61.69,19.63l-6.35-6.25a2.06,2.06,0,0,0-2.82,0,2.36,2.36,0,0,1-3.32.41,2.05,2.05,0,0,1-.34-.32A2.28,2.28,0,0,1,49,9.84a2,2,0,0,0,0-2.76L42.54.82a2.83,2.83,0,0,0-4,0,2.73,2.73,0,0,0-.05,3.86l.05.05,7.58,7.45-7.58,7.45a2.73,2.73,0,0,0-.05,3.86l.05.05a2.85,2.85,0,0,0,4,0l7.59-7.45,7.58,7.45a2.85,2.85,0,0,0,4,0,2.72,2.72,0,0,0,.05-3.86A.12.12,0,0,0,61.69,19.63Z" transform="translate(0 0)"/></g></g><g id="그룹_2213" data-name="그룹 2213"><path id="패스_902" data-name="패스 902" class="cls-5" d="M77.36,7.58a7.21,7.21,0,0,1,6.54,3.7L81,13.5a6.34,6.34,0,0,0-1.52-1.58,3.65,3.65,0,0,0-2.13-.61,4.19,4.19,0,0,0-1.6.32,3.93,3.93,0,0,0-1.23.87,3.83,3.83,0,0,0-.8,1.29,4.31,4.31,0,0,0-.29,1.63,4.4,4.4,0,0,0,.29,1.64,3.86,3.86,0,0,0,.8,1.31,3.9,3.9,0,0,0,1.23.86,3.85,3.85,0,0,0,1.6.32,3.51,3.51,0,0,0,2.13-.61A5.94,5.94,0,0,0,81,17.39l2.86,2.19a7.14,7.14,0,0,1-6.5,3.74,8.25,8.25,0,0,1-3.18-.61A8.08,8.08,0,0,1,71.62,21a8,8,0,0,1-1.71-8.72,7.49,7.49,0,0,1,1.71-2.48,8.24,8.24,0,0,1,5.75-2.26Z" transform="translate(0 0)"/><path id="패스_903" data-name="패스 903" class="cls-5" d="M91,23h-4.1V.6H91Z" transform="translate(0 0)"/><path id="패스_904" data-name="패스 904" class="cls-5" d="M102.28,7.58A8.26,8.26,0,0,1,108,9.84a7.81,7.81,0,0,1,1.73,2.48,7.49,7.49,0,0,1,.64,3.1,7.57,7.57,0,0,1-.64,3.11A7.74,7.74,0,0,1,108,21a8.3,8.3,0,0,1-11.43,0,7.56,7.56,0,0,1-1.72-2.49,7.92,7.92,0,0,1,1.72-8.69,8.16,8.16,0,0,1,5.71-2.26Zm0,3.73a3.68,3.68,0,0,0-2.81,1.17,4.26,4.26,0,0,0-1.08,3,4.12,4.12,0,0,0,1.08,2.93,3.68,3.68,0,0,0,2.81,1.14,3.88,3.88,0,0,0,1.54-.3,3.49,3.49,0,0,0,1.23-.85,4.17,4.17,0,0,0,1.12-2.92,4.19,4.19,0,0,0-.3-1.64,4.26,4.26,0,0,0-.82-1.31,3.9,3.9,0,0,0-1.23-.86,3.71,3.71,0,0,0-1.54-.33Z" transform="translate(0 0)"/><path id="패스_905" data-name="패스 905" class="cls-5" d="M127.24,16.33a7.76,7.76,0,0,1-.53,2.9,6.77,6.77,0,0,1-1.46,2.2,6.41,6.41,0,0,1-2.19,1.4,7.43,7.43,0,0,1-2.72.48,7.59,7.59,0,0,1-2.75-.48,6.31,6.31,0,0,1-2.19-1.4,6.61,6.61,0,0,1-1.46-2.2,7.57,7.57,0,0,1-.53-2.9V7.91h4.07v8.75a2.76,2.76,0,0,0,.82,2.11,2.85,2.85,0,0,0,2,.78,2.89,2.89,0,0,0,2-.78,2.76,2.76,0,0,0,.82-2.11V7.91h4.07Z" transform="translate(0 0)"/><path id="패스_906" data-name="패스 906" class="cls-5" d="M146.23,23h-3.77V21.17a5,5,0,0,1-2,1.6,6.74,6.74,0,0,1-2.81.55,7.5,7.5,0,0,1-2.95-.58,6.8,6.8,0,0,1-2.29-1.61,7.63,7.63,0,0,1-1.5-2.45,9,9,0,0,1,0-6.17,7.41,7.41,0,0,1,1.52-2.45,7,7,0,0,1,2.31-1.61,7.32,7.32,0,0,1,2.92-.58,6.71,6.71,0,0,1,2.58.48,5.36,5.36,0,0,1,1.95,1.34V.6h4.07Zm-7.87-11.45a3.84,3.84,0,0,0-2.72,1.08,3.67,3.67,0,0,0-.83,1.29,4.8,4.8,0,0,0,0,3.38,3.69,3.69,0,0,0,.82,1.28,3.32,3.32,0,0,0,1.23.82,4,4,0,0,0,1.5.29,4.6,4.6,0,0,0,1.38-.24,3.54,3.54,0,0,0,2.11-2,5.1,5.1,0,0,0,0-3.65,3.85,3.85,0,0,0-.86-1.28,3.5,3.5,0,0,0-1.22-.75,4.48,4.48,0,0,0-1.41-.23Z" transform="translate(0 0)"/></g><g id="그룹_2217" data-name="그룹 2217"><g id="그룹_2215" data-name="그룹 2215"><path id="패스_907" data-name="패스 907" class="cls-5" d="M76.84,7.57a7.22,7.22,0,0,1,6.53,3.71L80.51,13.5A6.34,6.34,0,0,0,79,11.92a3.62,3.62,0,0,0-2.12-.61,4,4,0,0,0-1.6.32A3.72,3.72,0,0,0,74,12.5a3.86,3.86,0,0,0-.81,1.29,4.52,4.52,0,0,0-.29,1.63,4.61,4.61,0,0,0,.29,1.64A3.88,3.88,0,0,0,74,18.37a3.69,3.69,0,0,0,1.23.86,3.82,3.82,0,0,0,1.6.32A3.48,3.48,0,0,0,79,18.94a5.94,5.94,0,0,0,1.49-1.55l2.86,2.19a7.13,7.13,0,0,1-6.5,3.74,8.25,8.25,0,0,1-3.18-.61A8,8,0,0,1,71.1,21a7.94,7.94,0,0,1-1.72-8.72A7.37,7.37,0,0,1,71.1,9.84a8.27,8.27,0,0,1,5.74-2.27Z" transform="translate(0 0)"/><path id="패스_908" data-name="패스 908" class="cls-5" d="M90.48,23h-4.1V.6h4.1Z" transform="translate(0 0)"/><path id="패스_909" data-name="패스 909" class="cls-5" d="M101.76,7.57a8.24,8.24,0,0,1,5.71,2.27,7.68,7.68,0,0,1,1.74,2.48,7.48,7.48,0,0,1,.63,3.1,7.56,7.56,0,0,1-.63,3.11A7.72,7.72,0,0,1,107.47,21a8.29,8.29,0,0,1-11.42,0,7.41,7.41,0,0,1-1.72-2.49,7.71,7.71,0,0,1-.62-3.11,7.58,7.58,0,0,1,2.34-5.58A8.13,8.13,0,0,1,98.6,8.18a8,8,0,0,1,3.16-.6Zm0,3.74A3.68,3.68,0,0,0,99,12.48a4.22,4.22,0,0,0-1.08,3A4.12,4.12,0,0,0,99,18.38a3.7,3.7,0,0,0,2.81,1.14,3.79,3.79,0,0,0,2.77-1.15,4.28,4.28,0,0,0,.82-1.29,4.53,4.53,0,0,0,.3-1.63,4.58,4.58,0,0,0-.3-1.64,4.26,4.26,0,0,0-.82-1.31,3.84,3.84,0,0,0-1.24-.86,3.66,3.66,0,0,0-1.53-.33Z" transform="translate(0 0)"/><path id="패스_910" data-name="패스 910" class="cls-5" d="M126.71,16.33a7.39,7.39,0,0,1-.53,2.9,6.61,6.61,0,0,1-1.46,2.2,6.31,6.31,0,0,1-2.19,1.4,7.43,7.43,0,0,1-2.72.48,7.59,7.59,0,0,1-2.75-.48,6.41,6.41,0,0,1-2.19-1.4,6.58,6.58,0,0,1-1.45-2.2,7.58,7.58,0,0,1-.54-2.9V7.91H117v8.75a2.73,2.73,0,0,0,.82,2.11,3,3,0,0,0,4,0,2.76,2.76,0,0,0,.82-2.11V7.91h4.07Z" transform="translate(0 0)"/><path id="패스_911" data-name="패스 911" class="cls-5" d="M145.71,23h-3.77V21.17a5.09,5.09,0,0,1-2,1.6,6.81,6.81,0,0,1-2.81.55,7.43,7.43,0,0,1-3-.58,6.84,6.84,0,0,1-2.3-1.61,7.53,7.53,0,0,1-1.5-2.45,9,9,0,0,1,0-6.17,7.58,7.58,0,0,1,1.52-2.45,7.07,7.07,0,0,1,5.23-2.19,6.76,6.76,0,0,1,2.59.48,5.45,5.45,0,0,1,1.94,1.34V.6h4.07Zm-7.87-11.45a4,4,0,0,0-1.49.28,3.9,3.9,0,0,0-1.23.8,3.79,3.79,0,0,0-.84,1.29,4.8,4.8,0,0,0,0,3.38,4,4,0,0,0,.82,1.28,3.5,3.5,0,0,0,1.23.82,4.05,4.05,0,0,0,2.88.05,3.54,3.54,0,0,0,2.12-2,5.24,5.24,0,0,0,0-3.66,3.88,3.88,0,0,0-.87-1.28,3.42,3.42,0,0,0-1.22-.75,4.48,4.48,0,0,0-1.41-.23Z" transform="translate(0 0)"/></g><g id="그룹_2216" data-name="그룹 2216"><path id="패스_912" data-name="패스 912" class="cls-5" d="M162.68,14.32a3.06,3.06,0,0,1,1.23.23,2.52,2.52,0,0,1,.92.63,2.79,2.79,0,0,1,.57,1,3.91,3.91,0,0,1,.19,1.27V22.2h-2.1V17.72a1.57,1.57,0,0,0-.37-1.1,1.3,1.3,0,0,0-1-.4,1.36,1.36,0,0,0-1,.4,1.41,1.41,0,0,0-.39,1.05V22.2h-2.1V17.71a1.58,1.58,0,0,0-.37-1.1,1.5,1.5,0,0,0-2,0,1.59,1.59,0,0,0-.38,1.1V22.2h-2.1V14.49h1.93v.69a2.86,2.86,0,0,1,.94-.64,3.28,3.28,0,0,1,1.24-.22,3,3,0,0,1,1.35.29,2.59,2.59,0,0,1,.93.81,3.5,3.5,0,0,1,1.1-.8,3.6,3.6,0,0,1,1.48-.3Z" transform="translate(0 0)"/><path id="패스_913" data-name="패스 913" class="cls-5" d="M170.76,14.32a4.32,4.32,0,0,1,1.34.21,2.87,2.87,0,0,1,1.05.62,2.7,2.7,0,0,1,.67,1,3.73,3.73,0,0,1,.24,1.44V22.2h-1.91v-.75a2.76,2.76,0,0,1-1,.69,3.53,3.53,0,0,1-1.36.25,3.56,3.56,0,0,1-1.13-.18,2.82,2.82,0,0,1-.84-.48,2.12,2.12,0,0,1-.52-.73,2.39,2.39,0,0,1-.18-.92,2,2,0,0,1,.79-1.65,3.53,3.53,0,0,1,2.14-.59H172V17.5a1.32,1.32,0,0,0-.36-1,1.49,1.49,0,0,0-1.09-.36,2.05,2.05,0,0,0-1.08.28,5.12,5.12,0,0,0-1,.78l-1.08-1.29a4.14,4.14,0,0,1,3.35-1.59Zm-.42,6.53a1.69,1.69,0,0,0,1.16-.42,1.43,1.43,0,0,0,.48-1.11v-.09h-1.65q-1.08,0-1.08.78a.72.72,0,0,0,.3.62,1.37,1.37,0,0,0,.79.22Z" transform="translate(0 0)"/><path id="패스_914" data-name="패스 914" class="cls-5" d="M180.14,14.4a1.9,1.9,0,0,1,.67.09v1.85h-.56a2.21,2.21,0,0,0-1.48.49,1.85,1.85,0,0,0-.58,1.52V22.2h-2.1V14.49H178v.92a2.55,2.55,0,0,1,.94-.75,2.67,2.67,0,0,1,1.18-.26Z" transform="translate(0 0)"/><path id="패스_915" data-name="패스 915" class="cls-5" d="M184.23,17.79l2.78-3.3h2.49l-2.9,3.43,3.13,4.28h-2.4L184.23,18V22.2h-2.1V10.52h2.1Z" transform="translate(0 0)"/><path id="패스_916" data-name="패스 916" class="cls-5" d="M194.16,14.32a3.61,3.61,0,0,1,2.62,1,3.37,3.37,0,0,1,.73,1.14,3.74,3.74,0,0,1,.26,1.4,4.48,4.48,0,0,1-.05.64q0,.32-.09.51h-5.42a1.91,1.91,0,0,0,.78,1.14,2.44,2.44,0,0,0,1.42.39,3.16,3.16,0,0,0,1.14-.21,4.7,4.7,0,0,0,1-.57l.86,1.43a5.15,5.15,0,0,1-1.42.85,4.27,4.27,0,0,1-1.65.3,4.49,4.49,0,0,1-1.7-.31,3.92,3.92,0,0,1-1.34-.85,4,4,0,0,1-.88-1.28,3.8,3.8,0,0,1-.32-1.59,4,4,0,0,1,1.17-2.87,4,4,0,0,1,2.89-1.16Zm-.08,1.7a1.85,1.85,0,0,0-1.19.41,2.16,2.16,0,0,0-.68,1.15h3.54a1.53,1.53,0,0,0-.52-1.15,1.68,1.68,0,0,0-1.15-.41Z" transform="translate(0 0)"/><path id="패스_917" data-name="패스 917" class="cls-5" d="M204.13,16.27h-2.2v3a1.1,1.1,0,0,0,.35.93,1.78,1.78,0,0,0,1.08.26h.43l.56,0V22.2l-.68.14a6.47,6.47,0,0,1-.76.05,3.33,3.33,0,0,1-2.26-.7,2.74,2.74,0,0,1-.83-2.2V16.27h-1.21V14.49h1.21v-2h2.1v2h2.2Z" transform="translate(0 0)"/><path id="패스_918" data-name="패스 918" class="cls-5" d="M211.26,14.32a3.83,3.83,0,0,1,1.5.3,3.4,3.4,0,0,1,1.18.84,4,4,0,0,1,.78,1.27,4.74,4.74,0,0,1,0,3.21,4.05,4.05,0,0,1-.78,1.29,3.6,3.6,0,0,1-1.19.85,3.66,3.66,0,0,1-1.5.3,3,3,0,0,1-2.3-.92V25h-2.1V14.48h1.93v.95a2.6,2.6,0,0,1,1-.83,3.47,3.47,0,0,1,1.45-.28Zm-.37,1.9a2,2,0,0,0-.73.13,1.73,1.73,0,0,0-.62.38,1.92,1.92,0,0,0-.44.65,2.44,2.44,0,0,0-.18,1,2.58,2.58,0,0,0,.17.95,2,2,0,0,0,.44.67,2,2,0,0,0,.63.39,2.28,2.28,0,0,0,.73.12,2,2,0,0,0,.76-.14,1.81,1.81,0,0,0,.63-.43,1.84,1.84,0,0,0,.43-.66,2.57,2.57,0,0,0,0-1.77,2,2,0,0,0-.43-.67,1.81,1.81,0,0,0-.63-.43A2,2,0,0,0,210.89,16.22Z" transform="translate(0 0)"/><path id="패스_919" data-name="패스 919" class="cls-5" d="M218.75,22.2h-2.1V10.52h2.1Z" transform="translate(0 0)"/><path id="패스_920" data-name="패스 920" class="cls-5" d="M224,14.32a4.32,4.32,0,0,1,1.34.21,2.87,2.87,0,0,1,1,.62,2.7,2.7,0,0,1,.67,1,3.94,3.94,0,0,1,.25,1.44V22.2h-1.92v-.75a2.76,2.76,0,0,1-1,.69,3.53,3.53,0,0,1-1.36.25,3.66,3.66,0,0,1-1.13-.18,2.82,2.82,0,0,1-.84-.48,2.12,2.12,0,0,1-.52-.73,2.39,2.39,0,0,1-.18-.92,2,2,0,0,1,.79-1.65,3.53,3.53,0,0,1,2.14-.59h1.93V17.5a1.36,1.36,0,0,0-.36-1,1.49,1.49,0,0,0-1.09-.36,2.05,2.05,0,0,0-1.08.28,4.82,4.82,0,0,0-1,.78l-1.07-1.29A4.14,4.14,0,0,1,224,14.32Zm-.42,6.53a1.69,1.69,0,0,0,1.16-.42,1.43,1.43,0,0,0,.48-1.11v-.09h-1.65q-1.08,0-1.08.78a.72.72,0,0,0,.3.62,1.39,1.39,0,0,0,.79.22Z" transform="translate(0 0)"/><path id="패스_921" data-name="패스 921" class="cls-5" d="M233,14.32a3.72,3.72,0,0,1,3.35,1.9l-1.47,1.14a3,3,0,0,0-.78-.81,1.76,1.76,0,0,0-1.09-.31,1.94,1.94,0,0,0-.82.16,2.11,2.11,0,0,0-.63.44,2,2,0,0,0-.41.67,2.31,2.31,0,0,0-.15.83,2.4,2.4,0,0,0,.15.84,1.9,1.9,0,0,0,1,1.11,2,2,0,0,0,.82.17,1.9,1.9,0,0,0,1.09-.31,3.25,3.25,0,0,0,.77-.8l1.46,1.12A3.67,3.67,0,0,1,233,22.39a4.33,4.33,0,0,1-1.63-.31,4,4,0,0,1-2.2-5.33,4,4,0,0,1,.88-1.27A4.25,4.25,0,0,1,233,14.32Z" transform="translate(0 0)"/><path id="패스_922" data-name="패스 922" class="cls-5" d="M241.39,14.32a3.78,3.78,0,0,1,1.48.28,3.56,3.56,0,0,1,1.14.76,3.37,3.37,0,0,1,.73,1.14,3.74,3.74,0,0,1,.26,1.4,3.39,3.39,0,0,1-.05.64q0,.32-.09.51h-5.42a1.91,1.91,0,0,0,.78,1.14,2.44,2.44,0,0,0,1.42.39,3.16,3.16,0,0,0,1.14-.21,4.7,4.7,0,0,0,1-.57l.86,1.43a5,5,0,0,1-1.42.85,4.27,4.27,0,0,1-1.65.3,4.49,4.49,0,0,1-1.7-.31,4,4,0,0,1-1.34-.85,4,4,0,0,1-1.2-2.87,4,4,0,0,1,4.06-4Zm-.08,1.7a1.85,1.85,0,0,0-1.19.41,2.16,2.16,0,0,0-.68,1.15H243a1.49,1.49,0,0,0-.51-1.15,1.73,1.73,0,0,0-1.15-.41Z" transform="translate(0 0)"/></g></g></svg>